<svg xmlns="http://www.w3.org/2000/svg" width="8" height="16" viewBox="0 0 8 16">
  <path id="Logo" class="cls-1" d="M1434.27,42.366a1.453,1.453,0,0,1,.28-0.137c0.1-.038.21-0.072,0.32-0.1l0.66-.126h0.43l3.03,0.229H1439l-0.31,2.7h-0.01l-1.67-.172h-0.05l-0.17.023-0.06.023-0.19.091a0.133,0.133,0,0,0-.09.057l-0.14.149a0.54,0.54,0,0,0-.09.137q-0.03.069-.06,0.149a0.906,0.906,0,0,0-.03.172,0.918,0.918,0,0,0-.02.172l0.03,1.692,2.45,0.023-0.35,2.676-2.13.08v7.788L1436.1,58h-3.31V50.131H1431V47.444h1.72V47.42l0.01-.034,0.06-2.871,0.02-.16v-0.08l0.03-.08a0.5,0.5,0,0,1,.04-0.172,0.452,0.452,0,0,1,.08-0.148,1.036,1.036,0,0,1,.13-0.309,1,1,0,0,1,.18-0.286,1.161,1.161,0,0,1,.2-0.24,1.866,1.866,0,0,1,.22-0.229V42.8Z" transform="translate(-1431 -42)"/>
</svg>
