<svg xmlns="http://www.w3.org/2000/svg" width="16" height="16" viewBox="0 0 16 16">
  <path id="Logo" class="cls-1" d="M1485.91,42h-9.82a3.1,3.1,0,0,0-3.09,3.092v9.817A3.1,3.1,0,0,0,1476.09,58h9.82a3.1,3.1,0,0,0,3.09-3.092V45.091A3.1,3.1,0,0,0,1485.91,42Zm0.88,1.844h0.36v2.712l-2.7.009-0.01-2.712Zm-8.07,4.513a2.8,2.8,0,0,1,4.56,0,2.763,2.763,0,0,1,.54,1.643,2.82,2.82,0,0,1-5.64,0A2.763,2.763,0,0,1,1478.72,48.357Zm8.72,6.551a1.535,1.535,0,0,1-1.53,1.533h-9.82a1.535,1.535,0,0,1-1.53-1.533V48.357h2.39a4.289,4.289,0,0,0-.33,1.643,4.375,4.375,0,0,0,8.75,0,4.282,4.282,0,0,0-.32-1.643h2.39v6.551Z" transform="translate(-1473 -42)"/>
</svg>
