<svg xmlns="http://www.w3.org/2000/svg"><symbol id="icon-header-facebook" viewBox="0 0 8 16">
    <path class="cls-1" d="M3.27.366a1.453 1.453 0 0 1 .28-.137c.1-.038.21-.072.32-.1l.66-.126h.43l3.03.229H8l-.31 2.7h-.01L6.01 2.76h-.05l-.17.023-.06.023-.19.091a.133.133 0 0 0-.09.057l-.14.149a.54.54 0 0 0-.09.137q-.03.069-.06.149a.906.906 0 0 0-.03.172.918.918 0 0 0-.02.172l.03 1.692 2.45.023-.35 2.676-2.13.08v7.788L5.1 16H1.79V8.131H0V5.444h1.72V5.42l.01-.034.06-2.871.02-.16v-.08l.03-.08a.5.5 0 0 1 .04-.172.452.452 0 0 1 .08-.148 1.036 1.036 0 0 1 .13-.309 1 1 0 0 1 .18-.286 1.161 1.161 0 0 1 .2-.24 1.866 1.866 0 0 1 .22-.229V.8z"/>
</symbol><symbol id="icon-header-inst" viewBox="0 0 16 16">
    <path class="cls-1" d="M12.91 0H3.09A3.1 3.1 0 0 0 0 3.092v9.817A3.1 3.1 0 0 0 3.09 16h9.82A3.1 3.1 0 0 0 16 12.908V3.091A3.1 3.1 0 0 0 12.91 0zm.88 1.844h.36v2.712l-2.7.009-.01-2.712zM5.72 6.357a2.8 2.8 0 0 1 4.56 0A2.763 2.763 0 0 1 10.82 8a2.82 2.82 0 0 1-5.64 0 2.763 2.763 0 0 1 .54-1.643zm8.72 6.551a1.535 1.535 0 0 1-1.53 1.533H3.09a1.535 1.535 0 0 1-1.53-1.533V6.357h2.39A4.289 4.289 0 0 0 3.62 8a4.375 4.375 0 0 0 8.75 0 4.282 4.282 0 0 0-.32-1.643h2.39v6.551z"/>
</symbol><symbol id="icon-header-mail" viewBox="0 0 490 490">
    <path d="M169.6 256.3L0 101.5v288.9zM304.5 270.3l-52.8 48.2c-4.1 3.8-10.5 3.8-14.6 0l-52-48.2-165.6 131h451l-166-131z"/>
    <path d="M244.6 296.7l228.2-208H16.4zM320 256.3l170 134.1V101.1z"/>
</symbol><symbol id="icon-left-arrow" viewBox="0 0 31.494 31.494">
    <path d="M10.273 5.009a1.112 1.112 0 0 1 1.587 0 1.12 1.12 0 0 1 0 1.571l-8.047 8.047h26.554c.619 0 1.127.492 1.127 1.111s-.508 1.127-1.127 1.127H3.813l8.047 8.032c.429.444.429 1.159 0 1.587a1.112 1.112 0 0 1-1.587 0L.321 16.532a1.12 1.12 0 0 1 0-1.571l9.952-9.952z"/>
</symbol><symbol id="icon-location-pin" viewBox="0 0 54.757 54.757">
    <path d="M40.94 5.617A19.052 19.052 0 0 0 27.38 0a19.05 19.05 0 0 0-13.56 5.617c-6.703 6.702-7.536 19.312-1.804 26.952L27.38 54.757 42.721 32.6c5.755-7.671 4.922-20.281-1.781-26.983zM27.557 26c-3.859 0-7-3.141-7-7s3.141-7 7-7 7 3.141 7 7-3.141 7-7 7z"/>
</symbol><symbol id="icon-right-arrow" viewBox="0 0 31.49 31.49">
    <path d="M21.205 5.007a1.112 1.112 0 0 0-1.587 0 1.12 1.12 0 0 0 0 1.571l8.047 8.047H1.111A1.106 1.106 0 0 0 0 15.737c0 .619.492 1.127 1.111 1.127h26.554l-8.047 8.032c-.429.444-.429 1.159 0 1.587a1.112 1.112 0 0 0 1.587 0l9.952-9.952a1.093 1.093 0 0 0 0-1.571l-9.952-9.953z"/>
</symbol><symbol id="icon-zigzag" viewBox="0 0 62.995 62.995">
    <path d="M54.411 24.535c-1.065-1.239-2.934-.96-4.038 0-2.959 2.571-5.746 5.317-8.554 8.046-2.872-2.587-5.566-5.357-8.352-8.046-.556-.536-1.171-.77-1.775-.8-.064-.006-.129-.003-.195-.004-.064.002-.13-.002-.195.004-.603.031-1.22.265-1.775.8-2.786 2.688-5.479 5.458-8.353 8.046-2.808-2.729-5.596-5.475-8.553-8.046-1.104-.96-2.973-1.239-4.039 0-2.583 3.002-5.134 6.027-7.807 8.949-2.48 2.712 1.548 6.763 4.04 4.039 2.065-2.257 4.057-4.576 6.046-6.898 2.784 2.562 5.46 5.232 8.194 7.851 1.202 1.152 2.822 1.012 4.039 0 2.961-2.457 5.668-5.175 8.402-7.873 2.732 2.698 5.44 5.416 8.402 7.873 1.216 1.012 2.836 1.152 4.038 0 2.733-2.618 5.409-5.289 8.194-7.851 1.988 2.322 3.98 4.642 6.045 6.898 2.49 2.724 6.52-1.326 4.04-4.039-2.672-2.922-5.221-5.947-7.804-8.949z"/>
</symbol></svg>