<svg fill="rgba(0, 0, 0, 0.03)" xmlns="http://www.w3.org/2000/svg" width="92.44" height="611.781" viewBox="0 0 92.44 611.781">
  <path id="Boards" class="cls-1" d="M1394.58,995.946v42.294h89.03V994.3a50.407,50.407,0,0,0-2.98-18.161,26.053,26.053,0,0,0-8.64-11.938,21.451,21.451,0,0,0-13.14-4.191,22.839,22.839,0,0,0-14.74,4.89,21.863,21.863,0,0,0-7.74,13.4,20.709,20.709,0,0,0-7.11-11.239,19.066,19.066,0,0,0-12.2-4.128,18.515,18.515,0,0,0-11.93,4.064,25.571,25.571,0,0,0-7.81,11.494,50.593,50.593,0,0,0-2.74,17.462h0Zm35.44,1.27V1015h-17.27V997.216q-0.135-4.824,2.09-7.62a7.579,7.579,0,0,1,6.29-2.794,8.1,8.1,0,0,1,6.54,2.794,11.455,11.455,0,0,1,2.35,7.62h0Zm35.56,0V1015h-18.67V997.216q-0.12-6.1,2.35-9.652a7.73,7.73,0,0,1,6.67-3.556,8.246,8.246,0,0,1,7.11,3.556q2.535,3.558,2.54,9.652h0Zm-72.39-105.027a50.611,50.611,0,0,0,5.97,24.574,44.266,44.266,0,0,0,39.75,23.559,45.524,45.524,0,0,0,23.68-6.287,44.686,44.686,0,0,0,16.64-17.272,52.857,52.857,0,0,0-.06-49.149,45.068,45.068,0,0,0-40.26-23.558,44.263,44.263,0,0,0-39.75,23.558,50.626,50.626,0,0,0-5.97,24.575h0Zm19.68-.254a22.61,22.61,0,0,1,3.43-12.129,24.125,24.125,0,0,1,9.46-8.7,29.59,29.59,0,0,1,26.67,0,24.53,24.53,0,0,1,9.53,8.7,22.236,22.236,0,0,1,3.49,12.129,22.547,22.547,0,0,1-3.49,12.192,25.8,25.8,0,0,1-9.53,8.953,28.336,28.336,0,0,1-26.67.064,24.727,24.727,0,0,1-9.46-8.954,23.247,23.247,0,0,1-3.43-12.255h0Zm70.74-159.892-89.03,37.338v23.876l89.03,38.227V807.608l-15.75-6.223V762.9l15.75-6.1V732.043Zm-65.28,49.911,31.75-12.192V794.4Zm65.28-150.367-29.08,18.542a28.117,28.117,0,0,0-11.37-11.811,35.087,35.087,0,0,0-17.33-4.064q-14.865,0-23.05,9.715t-8.2,27.369v40h89.03V688.1h-24.64V670.83l24.64-12.954V631.587ZM1413.13,688.1V671.211q0-7.111,3.49-10.986t9.97-3.873q6.735,0,10.29,3.873t3.55,10.986V688.1h-27.3Zm-18.55-119.761V606.7h89.03V569.23q0-14.221-5.59-25.209A40.813,40.813,0,0,0,1462.28,527a47.885,47.885,0,0,0-46.42-.064,40.969,40.969,0,0,0-15.69,16.7,52.784,52.784,0,0,0-5.59,24.7h0Zm70.24-.635v15.748h-51.31v-14.6a23.928,23.928,0,0,1,3.24-12.446,22.725,22.725,0,0,1,9.08-8.572,28.187,28.187,0,0,1,13.46-3.112,29.377,29.377,0,0,1,13.33,2.921,21.53,21.53,0,0,1,9.02,8.128,22.447,22.447,0,0,1,3.18,11.938h0Zm-43.44-132.333-18.54-8.763a62.653,62.653,0,0,0-7.3,16.51,67.981,67.981,0,0,0-2.73,19.05,48.423,48.423,0,0,0,3.36,18.733,27.919,27.919,0,0,0,9.59,12.446,24.525,24.525,0,0,0,14.48,4.381q8.76,0,14.03-4.254a26.73,26.73,0,0,0,7.88-10.224,117.155,117.155,0,0,0,5.14-15.113q1.65-6.1,2.86-9.461a16.189,16.189,0,0,1,3.24-5.588,6.581,6.581,0,0,1,5.08-2.223,6.21,6.21,0,0,1,5.58,2.985,15.132,15.132,0,0,1,1.91,8.191q0,7.115-3.81,16.32a56.086,56.086,0,0,1-9.78,15.938l18.16,9.017a60.416,60.416,0,0,0,10.61-18.986,65.931,65.931,0,0,0,3.87-22.035,49.99,49.99,0,0,0-3.18-18.224,28.451,28.451,0,0,0-9.46-12.891,24.632,24.632,0,0,0-15.17-4.7q-8.9,0-14.42,4.318a26.819,26.819,0,0,0-8.19,10.351,120.811,120.811,0,0,0-5.33,15.3q-1.9,6.224-3.12,9.4a16.475,16.475,0,0,1-3.17,5.334,6.336,6.336,0,0,1-4.89,2.159,5.177,5.177,0,0,1-4.64-2.476,12.588,12.588,0,0,1-1.58-6.8,44.9,44.9,0,0,1,2.66-13.525,78.508,78.508,0,0,1,6.86-15.177h0Z" transform="translate(-1392.81 -426.469)"/>
</svg>
