<svg xmlns="http://www.w3.org/2000/svg" width="619.813" height="65.53" viewBox="0 0 619.813 65.53">
    <defs>
        <style>
            .cls-1{fill-rule:evenodd;opacity:.03}
        </style>
    </defs>
    <path id="Instagram" class="cls-1" d="M374.12 3715.76h16.47v-63.09h-16.47v63.09zm80.909-25.11l-28.71-37.98h-14.49v63.09h15.39v-37.71l28.62 37.71h14.4v-63.09h-15.3zm80.009-18.99l6.21-13.14a44.444 44.444 0 0 0-11.7-5.17 48.171 48.171 0 0 0-13.5-1.94 34.263 34.263 0 0 0-13.275 2.39 19.747 19.747 0 0 0-8.82 6.79 17.369 17.369 0 0 0-3.1 10.26q0 6.21 3.015 9.95a18.947 18.947 0 0 0 7.245 5.58 82.819 82.819 0 0 0 10.71 3.64q4.32 1.17 6.705 2.03a11.575 11.575 0 0 1 3.96 2.29 4.678 4.678 0 0 1 1.575 3.6 4.407 4.407 0 0 1-2.115 3.96 10.725 10.725 0 0 1-5.8 1.35 30.827 30.827 0 0 1-11.565-2.7 39.753 39.753 0 0 1-11.295-6.93l-6.39 12.87a42.751 42.751 0 0 0 13.455 7.52 46.673 46.673 0 0 0 15.615 2.74 35.477 35.477 0 0 0 12.915-2.25 20.182 20.182 0 0 0 9.135-6.7 17.475 17.475 0 0 0 3.33-10.76q0-6.3-3.06-10.21a18.99 18.99 0 0 0-7.335-5.81 86.689 86.689 0 0 0-10.845-3.78q-4.41-1.35-6.66-2.2a11.712 11.712 0 0 1-3.78-2.25 4.506 4.506 0 0 1-1.53-3.47 3.653 3.653 0 0 1 1.755-3.28 8.863 8.863 0 0 1 4.815-1.13 31.678 31.678 0 0 1 9.585 1.89 55.362 55.362 0 0 1 10.755 4.86zm18.18-5.4h18.72v49.5h16.47v-49.5h18.9v-13.59h-54.09v13.59zm126.9 49.5l-26.46-63.09h-16.92l-27.09 63.09h16.92l4.41-11.16h27.27l4.32 11.16h17.55zm-35.37-46.26l8.64 22.5h-17.46zm90.09 30.33a24.907 24.907 0 0 1-10.89 3.06 17.8 17.8 0 0 1-9.18-2.43 17.168 17.168 0 0 1-6.48-6.7 19.639 19.639 0 0 1-2.34-9.59 19.18 19.18 0 0 1 2.34-9.45 17.318 17.318 0 0 1 15.48-9.09 22.354 22.354 0 0 1 8.775 1.89 26.263 26.263 0 0 1 7.875 5.13l9.36-11.52a36.506 36.506 0 0 0-11.88-6.88 40.678 40.678 0 0 0-14.04-2.57 37.3 37.3 0 0 0-17.775 4.23 31.893 31.893 0 0 0-12.51 11.66 31.147 31.147 0 0 0-4.545 16.6 32.3 32.3 0 0 0 4.41 16.74 31.63 31.63 0 0 0 12.105 11.75 34.876 34.876 0 0 0 17.235 4.27 46.6 46.6 0 0 0 13.9-2.29 42.092 42.092 0 0 0 12.375-5.99v-25.11h-14.22v16.29zm90.629 15.93l-13.14-20.61a19.9 19.9 0 0 0 8.37-8.05 24.9 24.9 0 0 0 2.88-12.29q0-10.53-6.885-16.33t-19.395-5.81h-28.35v63.09h16.47v-17.46h12.241l9.179 17.46h18.63zm-40.05-49.95h11.97q5.04 0 7.785 2.48a9.012 9.012 0 0 1 2.745 7.06q0 4.77-2.745 7.29t-7.785 2.52h-11.97v-19.35zm121.59 49.95l-26.46-63.09h-16.92l-27.09 63.09h16.92l4.41-11.16h27.27l4.32 11.16h17.55zm-35.37-46.26l8.64 22.5h-17.46zm50.04 46.26h14.67v-39.96l16.2 33.66h10.62l16.11-33.66.09 39.96h14.58v-63.09h-17.91l-18.18 36.9-18.27-36.9h-17.91v63.09z" transform="translate(-374.125 -3651.41)"/>
</svg>
