<svg xmlns="http://www.w3.org/2000/svg" width="1160.685" height="137.75" viewBox="0 0 1160.685 137.75">
  <metadata><?xpacket begin="﻿" id="W5M0MpCehiHzreSzNTczkc9d"?>
<x:xmpmeta xmlns:x="adobe:ns:meta/" x:xmptk="Adobe XMP Core 5.6-c138 79.159824, 2016/09/14-01:09:01        ">
   <rdf:RDF xmlns:rdf="http://www.w3.org/1999/02/22-rdf-syntax-ns#">
      <rdf:Description rdf:about=""/>
   </rdf:RDF>
</x:xmpmeta>
                                                                                                    
                                                                                                    
                                                                                                    
                                                                                                    
                                                                                                    
                                                                                                    
                                                                                                    
                                                                                                    
                                                                                                    
                                                                                                    
                                                                                                    
                                                                                                    
                                                                                                    
                                                                                                    
                                                                                                    
                                                                                                    
                                                                                                    
                                                                                                    
                                                                                                    
                                                                                                    
                           
<?xpacket end="w"?></metadata>
<defs>
    <style>
      .cls-1 {
        fill-rule: evenodd;
        opacity: 0.03;
      }
    </style>
  </defs>
  <path id="Our_Team" data-name="Our Team" class="cls-1" d="M448.38,2370.48a75.768,75.768,0,0,0-36.765,8.93,66.236,66.236,0,0,0-35.245,59.47,68.189,68.189,0,0,0,9.4,35.44,66.867,66.867,0,0,0,25.84,24.89,79.048,79.048,0,0,0,73.53-.1,67.414,67.414,0,0,0,35.245-60.23,66.236,66.236,0,0,0-35.245-59.47,75.784,75.784,0,0,0-36.765-8.93h0Zm0.38,29.45a33.745,33.745,0,0,1,18.145,5.13,36.04,36.04,0,0,1,13.015,14.16,41.98,41.98,0,0,1,4.75,19.85,42.41,42.41,0,0,1-4.75,20.05,36.708,36.708,0,0,1-13.015,14.25,33.314,33.314,0,0,1-18.145,5.22,33.776,33.776,0,0,1-18.24-5.22,38.6,38.6,0,0,1-13.395-14.25,42.395,42.395,0,0,1-.1-39.9,36.928,36.928,0,0,1,13.4-14.16,34.7,34.7,0,0,1,18.335-5.13h0Zm140.407,50.92v-78.28H554.4v78.28q0,17.3,7.5,30.31a50.364,50.364,0,0,0,21.28,20.04q13.774,7.035,32.015,7.03t31.825-7.03a49.443,49.443,0,0,0,20.9-20.04q7.313-13.02,7.315-30.31v-78.28h-34.77v78.28q0,12.735-6.935,20.24t-18.145,7.5q-11.4,0-18.81-7.6t-7.41-20.14h0Zm248.139,54.91-27.74-43.51a42.041,42.041,0,0,0,17.67-17q6.078-10.92,6.08-25.94,0-22.23-14.535-34.48t-40.945-12.26h-59.85v133.19h34.77V2468.9H778.6l19.38,36.86h39.33Zm-84.55-105.45h25.27q10.638,0,16.435,5.23t5.795,14.91q0,10.08-5.795,15.39t-16.435,5.32h-25.27v-40.85Zm171.377,0.95h39.52v104.5h34.77v-104.5h39.9v-28.69H924.133v28.69Zm147.247,104.5h106.97v-27.74h-72.2v-25.08l63.46-.19V2425.2h-63.46v-24.89h70.3v-27.74H1071.38v133.19Zm282.15,0-55.86-133.19h-35.72l-57.19,133.19h35.72l9.31-23.56h57.57l9.12,23.56h37.05Zm-74.67-97.66,18.24,47.5h-36.86Zm105.64,97.66h30.97V2421.4l34.2,71.06h22.42l34.01-71.06,0.19,84.36h30.78V2372.57h-37.81l-38.38,77.9-38.57-77.9H1384.5v133.19Z" transform="translate(-376.375 -2370.47)"/>
</svg>
