<svg xmlns="http://www.w3.org/2000/svg" width="1166.749" height="142.69" viewBox="0 0 1166.749 142.69">
  <metadata><?xpacket begin="﻿" id="W5M0MpCehiHzreSzNTczkc9d"?>
<x:xmpmeta xmlns:x="adobe:ns:meta/" x:xmptk="Adobe XMP Core 5.6-c138 79.159824, 2016/09/14-01:09:01        ">
   <rdf:RDF xmlns:rdf="http://www.w3.org/1999/02/22-rdf-syntax-ns#">
      <rdf:Description rdf:about=""/>
   </rdf:RDF>
</x:xmpmeta>
                                                                                                    
                                                                                                    
                                                                                                    
                                                                                                    
                                                                                                    
                                                                                                    
                                                                                                    
                                                                                                    
                                                                                                    
                                                                                                    
                                                                                                    
                                                                                                    
                                                                                                    
                                                                                                    
                                                                                                    
                                                                                                    
                                                                                                    
                                                                                                    
                                                                                                    
                                                                                                    
                           
<?xpacket end="w"?></metadata>
<defs>
    <style>
      .cls-1 {
        fill-rule: evenodd;
        opacity: 0.03;
      }
    </style>
  </defs>
  <path id="About_us" data-name="About us" class="cls-1" d="M532.488,1352.76l-57.624-137.39H438.016l-59,137.39h36.848l9.6-24.3H484.86l9.408,24.3h38.22ZM455.46,1252.02l18.816,49H436.252ZM629.7,1215.37H564.435v137.39h67.816q16.07,0,28.028-4.6t18.424-13.33a33.113,33.113,0,0,0,6.468-20.29q0-13.32-7.546-22.73t-20.678-11.96a31.932,31.932,0,0,0,17.346-10.97,29.418,29.418,0,0,0,6.37-18.82,28.586,28.586,0,0,0-6.272-18.42q-6.274-7.845-17.738-12.06t-26.95-4.21h0Zm-1.96,54.68H600.3V1243.4h27.44q7.446-.2,11.76,3.23t4.312,9.7q0,6.465-4.312,10.1t-11.76,3.62h0Zm0,54.88H600.3v-28.81h27.44q9.408-.195,14.9,3.63a11.915,11.915,0,0,1,5.488,10.29,12.712,12.712,0,0,1-5.488,10.97q-5.49,3.93-14.9,3.92h0Zm162.09-111.72q-20.976,0-37.926,9.21a68.346,68.346,0,0,0-36.358,61.35,70.34,70.34,0,0,0,9.7,36.56A68.921,68.921,0,0,0,751.907,1346q16.95,9.315,37.926,9.31t37.926-9.41a69.525,69.525,0,0,0,36.358-62.13,68.386,68.386,0,0,0-9.7-36.06,69.081,69.081,0,0,0-26.656-25.29q-16.956-9.21-37.926-9.21h0Zm0.392,30.38a34.881,34.881,0,0,1,18.718,5.29,37.2,37.2,0,0,1,13.426,14.61,43.3,43.3,0,0,1,4.9,20.48,43.753,43.753,0,0,1-4.9,20.68,38.008,38.008,0,0,1-13.426,14.7,34.372,34.372,0,0,1-18.718,5.39,34.847,34.847,0,0,1-18.816-5.39,39.959,39.959,0,0,1-13.818-14.7,43.734,43.734,0,0,1-.1-41.16,38.117,38.117,0,0,1,13.818-14.61,35.863,35.863,0,0,1,18.914-5.29h0Zm144.841,52.53v-80.75H899.2v80.75q0,17.835,7.742,31.26a52,52,0,0,0,21.952,20.68q14.208,7.245,33.026,7.25t32.83-7.25a51.051,51.051,0,0,0,21.562-20.68q7.545-13.425,7.54-31.26v-80.75H987.986v80.75q0,13.14-7.154,20.87-7.156,7.755-18.718,7.75-11.76,0-19.4-7.84t-7.644-20.78h0ZM1056,1244.96h40.76v107.8h35.87v-107.8h41.16v-29.59H1056v29.59Zm248.52,51.16v-80.75h-35.87v80.75q0,17.835,7.75,31.26a51.97,51.97,0,0,0,21.95,20.68q14.2,7.245,33.02,7.25t32.83-7.25a51.057,51.057,0,0,0,21.56-20.68q7.545-13.425,7.55-31.26v-80.75h-35.87v80.75q0,13.14-7.15,20.87-7.155,7.755-18.72,7.75-11.76,0-19.4-7.84t-7.65-20.78h0Zm227.56-39.4,13.52-28.61a96.625,96.625,0,0,0-25.48-11.27,104.86,104.86,0,0,0-29.4-4.22q-16.47,0-28.91,5.2t-19.21,14.8a37.8,37.8,0,0,0-6.76,22.34q0,13.53,6.57,21.66a41.244,41.244,0,0,0,15.77,12.15,179.416,179.416,0,0,0,23.33,7.94q9.4,2.55,14.6,4.41a25.138,25.138,0,0,1,8.62,5,10.163,10.163,0,0,1,3.43,7.84,9.582,9.582,0,0,1-4.6,8.62q-4.605,2.94-12.64,2.94-10.98,0-25.19-5.88a86.612,86.612,0,0,1-24.6-15.09l-13.91,28.03a92.956,92.956,0,0,0,29.3,16.36,101.544,101.544,0,0,0,34,5.98,77.433,77.433,0,0,0,28.13-4.9,43.858,43.858,0,0,0,19.89-14.6q7.26-9.7,7.26-23.42t-6.67-22.25a41.323,41.323,0,0,0-15.97-12.64,187.245,187.245,0,0,0-23.62-8.23q-9.6-2.94-14.5-4.81a25.391,25.391,0,0,1-8.24-4.9,9.773,9.773,0,0,1-3.33-7.54,8,8,0,0,1,3.82-7.16q3.825-2.445,10.49-2.45,8.43,0,20.87,4.12a120.445,120.445,0,0,1,23.43,10.58h0Z" transform="translate(-379.031 -1212.62)"/>
</svg>
