<svg xmlns="http://www.w3.org/2000/svg" width="89.62" height="89.62" viewBox="0 0 89.62 89.62">
<defs>
    <style>
      .cls-1 {
        fill: #fff;
        fill-rule: evenodd;
      }
    </style>
  </defs>
  <path id="Play_icon" data-name="Play icon" class="cls-1" d="M1265,1998.2a44.8,44.8,0,1,1-44.8,44.8A44.8,44.8,0,0,1,1265,1998.2Zm0,4.2a40.6,40.6,0,1,1-40.6,40.6A40.6,40.6,0,0,1,1265,2002.4Zm16.86,41.08a2.886,2.886,0,0,1-1.42,2.49h0l-21.16,12.5a0.038,0.038,0,0,0-.02.02h-0.02a2.824,2.824,0,0,1-1.47.41,2.9,2.9,0,0,1-2.89-2.89h0v-25.05h0a2.891,2.891,0,0,1,2.89-2.89,2.817,2.817,0,0,1,1.47.4h0.02a0.038,0.038,0,0,0,.02.02l21.16,12.5h0A2.9,2.9,0,0,1,1281.86,2043.48Z" transform="translate(-1220.19 -1998.19)"/>
</svg>
