<svg xmlns="http://www.w3.org/2000/svg" width="16" height="11" viewBox="0 0 16 11">
    <defs>
        <style>
            .cls-1{fill:#4d4d4d;fill-rule:evenodd}
        </style>
    </defs>
    <path id="Mail_icon" data-name="Mail icon" class="cls-1" d="M1055.91 4506.93l4.87-4.71a.756.756 0 0 1 .22.53v9.5a.754.754 0 0 1-.2.51zm-10.66-4.74a.739.739 0 0 1 .5-.19h14.5a.739.739 0 0 1 .5.19l-7.75 6.06zm-.05 10.57a.754.754 0 0 1-.2-.51v-9.5a.756.756 0 0 1 .22-.53l4.87 4.71zm7.8-3.01l2.03-1.97 5.73 5.01a.718.718 0 0 1-.51.21h-14.5a.718.718 0 0 1-.51-.21l5.73-5.01z" transform="translate(-1045 -4502)"/>
</svg>
