<svg xmlns="http://www.w3.org/2000/svg" width="89.62" height="89.62" viewBox="0 0 89.62 89.62">
    <defs>
        <style>
            .cls-1{fill:#fff;fill-rule:evenodd}
        </style>
    </defs>
    <path id="Play_icon" data-name="Play icon" class="cls-1" d="M1265 1998.2a44.8 44.8 0 1 1-44.8 44.8 44.8 44.8 0 0 1 44.8-44.8zm0 4.2a40.6 40.6 0 1 1-40.6 40.6 40.6 40.6 0 0 1 40.6-40.6zm16.86 41.08a2.886 2.886 0 0 1-1.42 2.49l-21.16 12.5a.038.038 0 0 0-.02.02h-.02a2.824 2.824 0 0 1-1.47.41 2.9 2.9 0 0 1-2.89-2.89v-25.05a2.891 2.891 0 0 1 2.89-2.89 2.817 2.817 0 0 1 1.47.4h.02a.038.038 0 0 0 .02.02l21.16 12.5a2.9 2.9 0 0 1 1.42 2.49z" transform="translate(-1220.19 -1998.19)"/>
</svg>
