<svg fill="#646464" xmlns="http://www.w3.org/2000/svg" viewBox="0 0 62.995 62.995">
    <path d="M54.411 24.535c-1.065-1.239-2.934-.96-4.038 0-2.959 2.571-5.746 5.317-8.554 8.046-2.872-2.587-5.566-5.357-8.352-8.046-.556-.536-1.171-.77-1.775-.8-.064-.006-.129-.003-.195-.004-.064.002-.13-.002-.195.004-.603.031-1.22.265-1.775.8-2.786 2.688-5.479 5.458-8.353 8.046-2.808-2.729-5.596-5.475-8.553-8.046-1.104-.96-2.973-1.239-4.039 0-2.583 3.002-5.134 6.027-7.807 8.949-2.48 2.712 1.548 6.763 4.04 4.039 2.065-2.257 4.057-4.576 6.046-6.898 2.784 2.562 5.46 5.232 8.194 7.851 1.202 1.152 2.822 1.012 4.039 0 2.961-2.457 5.668-5.175 8.402-7.873 2.732 2.698 5.44 5.416 8.402 7.873 1.216 1.012 2.836 1.152 4.038 0 2.733-2.618 5.409-5.289 8.194-7.851 1.988 2.322 3.98 4.642 6.045 6.898 2.49 2.724 6.52-1.326 4.04-4.039-2.672-2.922-5.221-5.947-7.804-8.949z"/>
</svg>
