<svg xmlns="http://www.w3.org/2000/svg" width="28.812" height="28.82" viewBox="0 0 28.812 28.82">
    <defs>
        <style>
            .cls-1{fill:#00b0ff;fill-rule:evenodd}
        </style>
    </defs>
    <path id="Logo_Instagram" data-name="Logo Instagram" class="cls-1" d="M418.834 4349.6h-17.668a5.572 5.572 0 0 0-5.566 5.56v17.67a5.575 5.575 0 0 0 5.566 5.57h17.668a5.575 5.575 0 0 0 5.566-5.57v-17.67a5.573 5.573 0 0 0-5.566-5.56zm1.6 3.32h.637v4.88l-4.865.01-.017-4.88zm-14.54 8.12a5.065 5.065 0 1 1-.959 2.96 5.079 5.079 0 0 1 .955-2.96zm15.7 11.79a2.758 2.758 0 0 1-2.76 2.76h-17.668a2.758 2.758 0 0 1-2.76-2.76v-11.79h4.3a7.875 7.875 0 1 0 14.589 0h4.3v11.79z" transform="translate(-395.594 -4349.59)"/>
</svg>
