<svg xmlns="http://www.w3.org/2000/svg" width="172.813" height="25.938" viewBox="0 0 172.813 25.938">
  <metadata><?xpacket begin="﻿" id="W5M0MpCehiHzreSzNTczkc9d"?>
<x:xmpmeta xmlns:x="adobe:ns:meta/" x:xmptk="Adobe XMP Core 5.6-c138 79.159824, 2016/09/14-01:09:01        ">
   <rdf:RDF xmlns:rdf="http://www.w3.org/1999/02/22-rdf-syntax-ns#">
      <rdf:Description rdf:about=""/>
   </rdf:RDF>
</x:xmpmeta>
                                                                                                    
                                                                                                    
                                                                                                    
                                                                                                    
                                                                                                    
                                                                                                    
                                                                                                    
                                                                                                    
                                                                                                    
                                                                                                    
                                                                                                    
                                                                                                    
                                                                                                    
                                                                                                    
                                                                                                    
                                                                                                    
                                                                                                    
                                                                                                    
                                                                                                    
                                                                                                    
                           
<?xpacket end="w"?></metadata>
<defs>
    <style>
      .cls-1 {
        fill-rule: evenodd;
      }
    </style>
  </defs>
  <path id="Surfers_Co." data-name="Surfers Co." class="cls-1" d="M391.785,42.608l2.353-4.964a16.869,16.869,0,0,0-4.432-1.955,18.3,18.3,0,0,0-5.114-.731,13.019,13.019,0,0,0-5.029.9,7.482,7.482,0,0,0-3.341,2.567,6.551,6.551,0,0,0-1.176,3.876,5.789,5.789,0,0,0,1.142,3.757,7.169,7.169,0,0,0,2.744,2.108,31.343,31.343,0,0,0,4.057,1.377q1.637,0.442,2.54.765a4.394,4.394,0,0,1,1.5.867,1.764,1.764,0,0,1,.6,1.36,1.663,1.663,0,0,1-.8,1.5,4.071,4.071,0,0,1-2.2.51,11.706,11.706,0,0,1-4.381-1.02,15.068,15.068,0,0,1-4.279-2.618l-2.421,4.862a16.193,16.193,0,0,0,5.1,2.839,17.734,17.734,0,0,0,5.916,1.037,13.478,13.478,0,0,0,4.892-.85,7.652,7.652,0,0,0,3.461-2.533,6.586,6.586,0,0,0,1.261-4.063,6.08,6.08,0,0,0-1.159-3.859,7.19,7.19,0,0,0-2.779-2.193,32.906,32.906,0,0,0-4.108-1.428q-1.671-.51-2.523-0.833a4.427,4.427,0,0,1-1.432-.85,1.694,1.694,0,0,1-.579-1.309,1.382,1.382,0,0,1,.664-1.241,3.369,3.369,0,0,1,1.824-.425,12.026,12.026,0,0,1,3.631.714,21,21,0,0,1,4.074,1.836h0Zm16.331-1.734v9.078a4.589,4.589,0,0,1-.92,2.975,3.16,3.16,0,0,1-2.523,1.173,2.773,2.773,0,0,1-2.165-.884,3.507,3.507,0,0,1-.8-2.448V40.874h-6.069V52.5a7.206,7.206,0,0,0,1.79,5.117,6.232,6.232,0,0,0,4.79,1.921,6.484,6.484,0,0,0,5.9-3.264v2.992h6.069V40.874h-6.069Zm15.614,3.06v-3.06h-6.068V59.268h6.068V49.884a3.845,3.845,0,0,1,1.535-2.737,5.625,5.625,0,0,1,3.477-1q0.613,0,.921.034V40.636a6.961,6.961,0,0,0-3.461.85,6.644,6.644,0,0,0-2.472,2.448h0ZM440.368,38.6a6.944,6.944,0,0,1,2.045.476l0.784-4.59a11.384,11.384,0,0,0-3.954-.714,7.447,7.447,0,0,0-5.029,1.683,5.754,5.754,0,0,0-1.961,4.607v1.7h-2.488V45.77h2.488v13.5h6.035V45.77h4.091V41.758h-4.091v-1.19a1.843,1.843,0,0,1,.58-1.462,2.186,2.186,0,0,1,1.5-.51h0Zm10.91,2.074a10.49,10.49,0,0,0-5.046,1.173,8.225,8.225,0,0,0-3.375,3.332,10.124,10.124,0,0,0-1.194,4.981,9.872,9.872,0,0,0,1.177,4.9,8.041,8.041,0,0,0,3.392,3.264,11.05,11.05,0,0,0,5.182,1.156A11.974,11.974,0,0,0,456,58.639a9.347,9.347,0,0,0,3.46-2.431l-3.171-3.162a6.489,6.489,0,0,1-2.028,1.394,5.768,5.768,0,0,1-2.3.476,4.251,4.251,0,0,1-2.66-.833,4.415,4.415,0,0,1-1.534-2.4h12.819q0.035-.374.034-1.088a10.391,10.391,0,0,0-2.42-7.276,8.9,8.9,0,0,0-6.921-2.652h0Zm-3.648,7.786a4.725,4.725,0,0,1,1.278-2.584,3.574,3.574,0,0,1,4.876.017,3.54,3.54,0,0,1,.937,2.567H447.63Zm21-4.522v-3.06h-6.069V59.268h6.069V49.884a3.844,3.844,0,0,1,1.534-2.737,5.63,5.63,0,0,1,3.478-1q0.614,0,.92.034V40.636a6.96,6.96,0,0,0-3.46.85,6.636,6.636,0,0,0-2.472,2.448h0Zm19.74,2.754,2.046-3.944a14.847,14.847,0,0,0-7.671-2.142,8.867,8.867,0,0,0-5.455,1.581,5.151,5.151,0,0,0-2.114,4.369,4.407,4.407,0,0,0,.937,2.924,6.047,6.047,0,0,0,2.2,1.683,27.021,27.021,0,0,0,3.2,1.139,14.663,14.663,0,0,1,2.4.816,1.157,1.157,0,0,1,.767,1.054,0.906,0.906,0,0,1-.529.833,2.949,2.949,0,0,1-1.414.289,9.97,9.97,0,0,1-3.256-.6,13.444,13.444,0,0,1-3.29-1.683l-1.91,3.91a11.928,11.928,0,0,0,3.819,1.955,15.171,15.171,0,0,0,4.5.663,9.341,9.341,0,0,0,5.643-1.581,5.111,5.111,0,0,0,2.165-4.369,4.479,4.479,0,0,0-.955-2.975,6.028,6.028,0,0,0-2.267-1.7,30.032,30.032,0,0,0-3.29-1.139,13.855,13.855,0,0,1-2.387-.816,1.118,1.118,0,0,1-.75-0.986,0.949,0.949,0,0,1,.477-0.867,2.42,2.42,0,0,1,1.262-.289,13.545,13.545,0,0,1,5.864,1.87h0Zm27.854-3.162,3.614-4.352a13.029,13.029,0,0,0-4.4-3.009,13.625,13.625,0,0,0-11.78.493A11.875,11.875,0,0,0,497.405,47.3a12.374,12.374,0,0,0,1.637,6.324,11.94,11.94,0,0,0,4.5,4.454,12.857,12.857,0,0,0,11.711.425,14.593,14.593,0,0,0,4.62-3.247l-3.648-3.91a9.716,9.716,0,0,1-2.864,2.04,7.255,7.255,0,0,1-3.069.748,6.211,6.211,0,0,1-3.29-.9,6.391,6.391,0,0,1-2.335-2.482,7.693,7.693,0,0,1,0-7.038A6.4,6.4,0,0,1,507,41.231a6.217,6.217,0,0,1,3.29-.9,6.626,6.626,0,0,1,3.171.867,8.915,8.915,0,0,1,2.762,2.329h0Zm13.3-2.856a11.415,11.415,0,0,0-5.285,1.173,8.469,8.469,0,0,0-3.528,3.3,10.383,10.383,0,0,0,0,9.86,8.466,8.466,0,0,0,3.528,3.3,12.49,12.49,0,0,0,10.569,0,8.584,8.584,0,0,0,3.546-3.3,10.268,10.268,0,0,0,0-9.86,8.588,8.588,0,0,0-3.546-3.3,11.41,11.41,0,0,0-5.284-1.173h0Zm0,4.9a3.662,3.662,0,0,1,2.881,1.258,4.81,4.81,0,0,1,1.108,3.3,4.907,4.907,0,0,1-1.091,3.332,3.647,3.647,0,0,1-2.9,1.258,3.607,3.607,0,0,1-2.864-1.258,4.9,4.9,0,0,1-1.091-3.332,4.851,4.851,0,0,1,1.091-3.3,3.609,3.609,0,0,1,2.864-1.258h0ZM543.4,53.658a2.8,2.8,0,0,0-2.1.816,3.169,3.169,0,0,0,.017,4.233,2.787,2.787,0,0,0,2.079.833,2.831,2.831,0,0,0,2.114-.833,2.9,2.9,0,0,0,.818-2.125,2.8,2.8,0,0,0-2.932-2.924h0Z" transform="translate(-373.531 -33.781)"/>
</svg>
